<svg width="16" height="16" viewBox="0 0 16 16" fill="none" xmlns="http://www.w3.org/2000/svg">
<path d="M5.8855 9.41638C6.2999 9.41638 6.69733 9.25176 6.99035 8.95874C7.28338 8.66571 7.448 8.26828 7.448 7.85388C7.448 6.99138 7.1355 6.60388 6.823 5.97888C6.153 4.63951 6.683 3.44513 8.073 2.22888C8.3855 3.79138 9.323 5.29138 10.573 6.29138C11.823 7.29138 12.448 8.47888 12.448 9.72888C12.448 10.3034 12.3348 10.8723 12.115 11.4031C11.8951 11.9339 11.5728 12.4162 11.1666 12.8225C10.7603 13.2287 10.278 13.551 9.74724 13.7709C9.21644 13.9907 8.64753 14.1039 8.073 14.1039C7.49846 14.1039 6.92956 13.9907 6.39876 13.7709C5.86796 13.551 5.38566 13.2287 4.97941 12.8225C4.57315 12.4162 4.25089 11.9339 4.03102 11.4031C3.81116 10.8723 3.698 10.3034 3.698 9.72888C3.698 9.00826 3.96862 8.29513 4.323 7.85388C4.323 8.26828 4.48762 8.66571 4.78064 8.95874C5.07367 9.25176 5.4711 9.41638 5.8855 9.41638Z" stroke="white" stroke-linecap="round" stroke-linejoin="round"/>
</svg>
