<svg width="21" height="21" viewBox="0 0 21 21" fill="none" xmlns="http://www.w3.org/2000/svg">
<path d="M13.4064 7.52055C14.7325 7.52055 16.0043 8.04733 16.9419 8.98501C17.8796 9.92269 18.4064 11.1945 18.4064 12.5205V18.3539H15.0731V12.5205C15.0731 12.0785 14.8975 11.6546 14.5849 11.342C14.2724 11.0295 13.8484 10.8539 13.4064 10.8539C12.9644 10.8539 12.5405 11.0295 12.2279 11.342C11.9153 11.6546 11.7397 12.0785 11.7397 12.5205V18.3539H8.40641V12.5205C8.40641 11.1945 8.9332 9.92269 9.87088 8.98501C10.8086 8.04733 12.0803 7.52055 13.4064 7.52055Z" stroke="white" stroke-linecap="round" stroke-linejoin="round"/>
<path d="M5.07308 8.35388H1.73975V18.3539H5.07308V8.35388Z" stroke="white" stroke-linecap="round" stroke-linejoin="round"/>
<path d="M3.40641 5.85388C4.32689 5.85388 5.07308 5.10769 5.07308 4.18721C5.07308 3.26674 4.32689 2.52055 3.40641 2.52055C2.48594 2.52055 1.73975 3.26674 1.73975 4.18721C1.73975 5.10769 2.48594 5.85388 3.40641 5.85388Z" stroke="white" stroke-linecap="round" stroke-linejoin="round"/>
</svg>
