<svg width="21" height="21" viewBox="0 0 21 21" fill="none" xmlns="http://www.w3.org/2000/svg">
<path d="M2.15634 15.0205C1.57419 12.2733 1.57419 9.43449 2.15634 6.68721C2.23283 6.40822 2.38062 6.15394 2.58518 5.94939C2.78973 5.74483 3.04401 5.59704 3.323 5.52055C7.79254 4.7801 12.3535 4.7801 16.823 5.52055C17.102 5.59704 17.3563 5.74483 17.5608 5.94939C17.7654 6.15394 17.9132 6.40822 17.9897 6.68721C18.5718 9.43449 18.5718 12.2733 17.9897 15.0205C17.9132 15.2995 17.7654 15.5538 17.5608 15.7584C17.3563 15.9629 17.102 16.1107 16.823 16.1872C12.3535 16.9278 7.79253 16.9278 3.323 16.1872C3.04401 16.1107 2.78973 15.9629 2.58518 15.7584C2.38062 15.5538 2.23283 15.2995 2.15634 15.0205Z" stroke="white" stroke-linecap="round" stroke-linejoin="round"/>
<path d="M8.40634 13.3539L12.573 10.8539L8.40634 8.35388V13.3539Z" stroke="white" stroke-linecap="round" stroke-linejoin="round"/>
</svg>
